<?xml version="1.0" encoding="iso-8859-1"?>
<!-- Generator: Adobe Illustrator 19.0.0, SVG Export Plug-In . SVG Version: 6.00 Build 0)  -->
<svg version="1.1" id="Capa_1" xmlns="http://www.w3.org/2000/svg" xmlns:xlink="http://www.w3.org/1999/xlink" x="0px" y="0px"
	 viewBox="0 0 353.047 353.047" style="enable-background:new 0 0 353.047 353.047;" xml:space="preserve">
<g>
	<g>
		<path d="M350.047,335.632l-55.6-55.2c24-45.2,34.4-83.6,34.4-115.6c0-28-8-51.6-22-71.6c-13.6-19.6-32.4-34.8-54.4-47.2
			c-72.4-40.4-180-46.4-242.8-46c-0.4,0-0.8,0-0.8,0c-0.4,0-0.8,0-1.2,0c-0.4,0-0.8,0-0.8,0.4c-0.4,0-0.8,0-0.8,0.4
			c-0.4,0-0.4,0.4-0.8,0.4s-0.4,0.4-0.8,0.4c-0.4,0-0.4,0.4-0.8,0.8c-0.4,0.4-0.4,0.4-0.8,0.8c-0.4,0.4-0.4,0.4-0.4,0.8
			c-0.4,0.4-0.4,0.4-0.8,0.8c0,0.4-0.4,0.4-0.4,0.8c0,0.4-0.4,0.8-0.4,0.8c0,0.4,0,0.4-0.4,0.8c0,0.4-0.4,0.8-0.4,1.2
			c0,0.4,0,0.8,0,0.8c0,0.4,0,0.8,0,1.2c-0.4,38,1.6,93.6,12.8,147.2c2,8.8,4,17.6,6,26.4c11.6,43.2,29.6,82.8,58,110
			c23.2,22.4,53.2,36,91.6,34.8c31.2-0.8,68.4-11.2,111.6-34.4l55.6,55.6c4,4,10.4,4,14.4,0S354.047,339.632,350.047,335.632z
			 M20.047,20.432c55.2,0.4,138.4,6,201.6,33.2l6.8,160.8l-142.4-142.4c-4-4-10.4-4-14.4,0s-4,10.4,0,14.4l64.4,64.4l-104.8-4.4
			C22.847,101.232,20.447,55.232,20.047,20.432z M168.047,308.832c-32.4,0.8-57.6-10.4-77.2-29.2c-25.2-24-41.6-60.8-52.4-100.8
			c-1.2-4-2-8-3.2-12.4l121.6,5.2l108,108C227.247,299.232,195.247,308.432,168.047,308.832z M279.647,265.632l-29.6-29.6l-7.6-172
			c0,0,0.4,0,0.4,0.4c19.2,10.4,36,23.6,47.6,40.4c11.6,16.4,18,36.4,18.4,60C308.847,192.432,300.047,225.632,279.647,265.632z"/>
	</g>
</g>
<g>
</g>
<g>
</g>
<g>
</g>
<g>
</g>
<g>
</g>
<g>
</g>
<g>
</g>
<g>
</g>
<g>
</g>
<g>
</g>
<g>
</g>
<g>
</g>
<g>
</g>
<g>
</g>
<g>
</g>
</svg>
